{"title":"Wolf.Creek.2.2013.WEBRip.480p.x264.AAC-VYTO [P2PDL]","uid":10122772,"size":373751542,"categoryP":"video","categoryS":"movies","magnet":"?xt=urn:btih:9980c4b09d1877e65c3cef38cf537bede085965b&amp;dn=Wolf.Creek.2.2013.WEBRip.480p.x264.AAC-VYTO+%5BP2PDL%5D&amp;tr=udp%3A%2F%2Ftracker.openbittorrent.com%3A80&amp;tr=udp%3A%2F%2Fopen.demonii.com%3A1337&amp;tr=udp%3A%2F%2Ftracker.coppersurfer.tk%3A6969&amp;tr=udp%3A%2F%2Fexodus.desync.com%3A6969","seeders":1,"leechers":3,"uploader":"ValidusVyto","files":-1,"time":1399704382,"description":"____    ____ ____    ____ .___________.  ______   \n     /   /      /   / |           | /  __    \n    /   /      /   /  `---|  |----`|  |  |  | \n        /     _    _/       |  |     |  |  |  | \n       /        |  |         |  |     |  `--'  | \n    __/         |__|         |__|      ______/  \n                                                  \nPresenting Small Encodes with quality for years!\n                                                                                                   \n                                                                                                   \n\nWolf.Creek.2.2013.WEBRip.480p.x264.AAC-VYTO\n\n\nGenre: Horror | Thriller  &lt;a href=&quot;\nhttp://www.imdb.com/title/tt2004432/&quot; rel=&quot;nofollow&quot; target=&quot;_NEW&quot;&gt;\nhttp://www.imdb.com/title/tt2004432/&lt;/a&gt;\n\n\nFormat                         : MPEG-4\nFile size                      : 352 MiB\nDuration                       : 1h 46mn\nOverall bit rate               : 463 Kbps\n\nVideo\nFormat                         : AVC\nBit rate                       : 420 Kbps\nWidth                          : 720 pixels\nHeight                         : 304 pixels\nDisplay aspect ratio           : 2.35:1\nFrame rate mode                : Constant\nFrame rate                     : 23.976 fps\nBit depth                      : 8 bits\nStream size                    : 319 MiB (91%)\nWriting library                : x264 core 142 r2431 ac76440\n\nAudio\nFormat                         : AAC\nBit rate                       : 40.0 Kbps\nChannel count                  : 2 channels\nChannel positions              : Front: L R\nSampling rate                  : 48.0 KHz\nStream size                    : 30.4 MiB (9%)\nLanguage                       : English\n\nSubtitle                       : Yes (English)\n &lt;a href=&quot;\nhttp://snapgr.am/images/2014/05/09/frame0.png&quot; rel=&quot;nofollow&quot; target=&quot;_NEW&quot;&gt;\nhttp://snapgr.am/images/2014/05/09/frame0.png&lt;/a&gt; &lt;a href=&quot;\nhttp://snapgr.am/images/2014/05/09/frame1.png&quot; rel=&quot;nofollow&quot; target=&quot;_NEW&quot;&gt;\nhttp://snapgr.am/images/2014/05/09/frame1.png&lt;/a&gt; &lt;a href=&quot;\nhttp://snapgr.am/images/2014/05/09/frame3.png&quot; rel=&quot;nofollow&quot; target=&quot;_NEW&quot;&gt;\nhttp://snapgr.am/images/2014/05/09/frame3.png&lt;/a&gt; &lt;a href=&quot;\nhttp://snapgr.am/images/2014/05/09/frame87674e.png&quot; rel=&quot;nofollow&quot; target=&quot;_NEW&quot;&gt;\nhttp://snapgr.am/images/2014/05/09/frame87674e.png&lt;/a&gt; &lt;a href=&quot;\nhttp://snapgr.am/images/2014/05/09/frame107c28d.png&quot; rel=&quot;nofollow&quot; target=&quot;_NEW&quot;&gt;\nhttp://snapgr.am/images/2014/05/09/frame107c28d.png&lt;/a&gt; &lt;a href=&quot;\nhttp://snapgr.am/images/2014/05/09/frame166481d.png&quot; rel=&quot;nofollow&quot; target=&quot;_NEW&quot;&gt;\nhttp://snapgr.am/images/2014/05/09/frame166481d.png&lt;/a&gt;\n\n----------------------------------------------------------------------------------------------------\n\n\nRecommend to you to use latest version of VLC player. Install K-Lite Codec Pack or shark007 codecs\nin case of any kind of problem in playback (For non-VLC Media Player users). Alternatively, install\nCore AVC codecs, the fastest decoder that there is coupled with Community Center Codec Pack and play\non Windows Media Player Classic. Check sample to be sure.\n\nEncoder Notes:Looking For Early Access To Anything You Can Provide DVDScr, R5, DVDR, BluRay, Direct\nAudio, Music Releases and Seedboxes. We require dedicated servers, so as to do more \nand fast releases of movies.\n\nEncode by VYTO @ P2PDL Torrent Sharing Community!","torrent":{"xt":"urn:btih:9980c4b09d1877e65c3cef38cf537bede085965b","amp;dn":"Wolf.Creek.2.2013.WEBRip.480p.x264.AAC-VYTO+%5BP2PDL%5D","amp;tr":["udp%3A%2F%2Ftracker.openbittorrent.com%3A80","udp%3A%2F%2Fopen.demonii.com%3A1337","udp%3A%2F%2Ftracker.coppersurfer.tk%3A6969","udp%3A%2F%2Fexodus.desync.com%3A6969"],"infoHash":"9980c4b09d1877e65c3cef38cf537bede085965b","infoHashBuffer":{"type":"Buffer","data":[153,128,196,176,157,24,119,230,92,60,239,56,207,83,123,237,224,133,150,91]},"announce":[],"urlList":[]}}